General :

Complete name                  : Blade_Runner(1982).(I).Theatrical.Cut.(Remastered-edition).HD.720p@25fps@DTS-5.1-Hybrid-Experiment-(PreRC1-Stage3)-(FR).mkv

Format                         : Matroska
Format version                 : Version 2
File size                      : 15.9 GiB
Duration                       : 1h 57mn
Overall bit rate mode          : Variable
Overall bit rate               : 19.4 Mbps
Writing application            : Lavf51.12.1
Writing library                : Lavf51.12.1

Video :
ID                             : 1
Format                         : AVC
Format/Info                    : Advanced Video Codec
Format profile                 : Baseline@L4.1
Format settings, CABAC         : No
Format settings, ReFrames      : 1 frame
Format settings, GOP           : M=1, N=12
Codec ID                       : V_MPEG4/ISO/AVC
Duration                       : 1h 57mn
Bit rate mode                  : Variable
Bit rate                       : 17.6 Mbps
Maximum bit rate               : 22.5 Mbps
Width                          : 1 280 pixels
Height                         : 720 pixels
Display aspect ratio           : 16:9
Frame rate                     : 25.000 fps
Original frame rate            : 24.000 fps
Color space                    : YUV
Chroma subsampling             : 4:2:0
Bit depth                      : 8 bits
Scan type                      : Progressive
Bits/(Pixel*Frame)             : 0.766
Stream size                    : 14.5 GiB (91%)
Default                        : Yes
Forced                         : No

Audio :
ID                             : 2-(FR) french language
Format                         : DTS
Format/Info                    : Digital Theater Systems
Codec ID                       : A_DTS
Duration                       : 1h 57mn
Bit rate mode                  : Constant
Bit rate                       : 1 411.2 Kbps
Channel(s)                     : 6 channels
Channel positions              : Front: L C R, Side: L R, LFE
Sampling rate                  : 48.0 KHz
Bit depth                      : 16 bits
Compression mode               : Lossy
Stream size                    : 1.16 GiB (7%)
Default                        : Yes
Forced                         : No



Et hop !
Allez,les poussins...
Seeder,svp,et que ça saute !
:)
merci de votre comprehension
amicament votre ;)